# xmcd
#
# Track frame offsets:
#	180
#	18959
#	38211
#	56209
#	75652
#	95987
#	115366
#	135604
#	155137
#	172780
#
# Disc length: 2561 seconds
#
# Revision: 1
# Processed by: cddbd v1.5.1PL2 Copyright (c) Steve Scherf et al.
# Submitted via: audiograbber 1.83.01
#
DISCID=8309ff0a
DTITLE=Tony Y Marea Alta - Tony Y Marea Alta
DYEAR=1900
DGENRE=Merengue
TTITLE0=La Noche
TTITLE1=Tus Besos
TTITLE2=Por Culpa de Ella
TTITLE3=Me Liberé
TTITLE4=Fábula de Amor
TTITLE5=Enamorado
TTITLE6=Huellas del Camino
TTITLE7=Mujer Que Tanto Amé
TTITLE8=Me Dejaste Solo
TTITLE9=Me Enamoré
EXTD=
EXTT0=
EXTT1=
EXTT2=
EXTT3=
EXTT4=
EXTT5=
EXTT6=
EXTT7=
EXTT8=
EXTT9=
PLAYORDER=
